<?xml version="1.0" encoding="UTF-8"?>
<svg width="200" height="200" viewBox="0 0 1024 1024" xmlns="http://www.w3.org/2000/svg">
  <path fill="#ffffff" d="M512 128a384 384 0 110 768 384 384 0 010-768zm0 64a320 320 0 100 640 320 320 0 000-640z"/>
  <path fill="#ffffff" d="M618.667 512c0-35.2-19.2-64-44.8-81.067l-117.333 128V640h44.8c6.4 0 11.733-4.267 17.067-6.4 23.467-19.2 100.267-87.467 100.267-121.6zM544 311.467c10.667 0 21.333 2.133 32 6.4v-30.934c-10.667-2.133-21.333-2.133-32-2.133h-68.267c-6.4 0-10.667 2.133-14.933 6.4L315.733 436.267c-4.266 4.266-6.4 8.533-6.4 14.933v128c0 6.4 2.134 10.667 6.4 14.933l23.467 23.467L281.6 674.133 305.067 699.733l371.2-371.2-23.467-23.466-125.867 125.866 85.334-93.866c-4.267-4.267-8.534-6.4-14.934-6.4H544v-19.2zM661.333 430.933l23.467 23.467c4.267 4.267 6.4 8.533 6.4 14.933v42.667c0 6.4-2.133 10.667-6.4 14.933l-85.333 93.867 42.666 42.667 85.334-93.867c12.8-12.8 19.2-29.867 19.2-49.067v-42.666c0-19.2-6.4-36.267-19.2-49.067l-23.467-23.467-42.667 25.6zM362.667 635.733l-46.934-46.933v38.4c0 19.2 6.4 36.267 19.2 49.067l42.667 42.666c12.8 12.8 29.867 19.2 49.067 19.2h66.133c19.2 0 36.267-6.4 49.067-19.2l23.466-23.466-42.666-42.667-23.467 23.467c-4.267 4.266-8.533 6.4-14.933 6.4h-66.134c-6.4 0-10.666-2.134-14.933-6.4l-42.666-42.667 2.133 2.133z"/>
</svg> 